<?xml version="1.0" encoding="UTF-8"?>
<svg width="200" height="60" viewBox="0 0 200 60" fill="none" xmlns="http://www.w3.org/2000/svg">
    <style>
        @keyframes slideLeft {
            0% { transform: translateX(0); opacity: 1; }
            45% { transform: translateX(-200px); opacity: 0; }
            55% { transform: translateX(-200px); opacity: 0; }
            100% { transform: translateX(0); opacity: 1; }
        }
        .logo {
            cursor: pointer;
        }
        .d-part {
            transition: all 0.3s ease;
        }
        .logo:hover .d-part {
            filter: brightness(1.1);
        }
        #letters-ila {
            transition: all 0.3s ease;
        }
        .logo.animate #letters-ila {
            animation: slideLeft 2s ease-in-out;
        }
    </style>

    <g class="logo" onclick="this.classList.add('animate'); setTimeout(() => this.classList.remove('animate'), 2000);">
        <!-- Letter D -->
        <g class="d-part">
            <path d="M20 10h20c11.046 0 20 8.954 20 20s-8.954 20-20 20H20V10z" fill="#000000"/>
            <path d="M25 15h15c8.284 0 15 6.716 15 15s-6.716 15-15 15H25V15z" fill="white"/>
            <path d="M30 20h10c5.523 0 10 4.477 10 10s-4.477 10-10 10H30V20z" fill="#000000"/>
        </g>
        
        <!-- Hyphen -->
        <rect x="70" y="25" width="15" height="5" fill="#000000"/>
        
        <!-- Letters ila -->
        <g id="letters-ila">
            <!-- Letter i -->
            <rect x="95" y="20" width="6" height="25" rx="2" fill="#2563eb"/>
            <circle cx="98" cy="12" r="3" fill="#2563eb"/>
            
            <!-- Letter l -->
            <rect x="115" y="10" width="6" height="35" rx="2" fill="#2563eb"/>
            
            <!-- Letter a -->
            <path d="M135 45V20h30v25h-6V26h-18v19h-6z M147 32h12v7h-12v-7z" fill="#2563eb"/>
        </g>
    </g>
</svg>
